Coordinates
version=1
nRows=6
nColumns=63
inDegrees=yes

Units are S.I. units (second, meters, Newtons, ...)
If the header above contains a line with 'inDegrees', this indicates whether rotational values are in degrees (yes) or radians (no).

endheader
time	pelvis_tilt	pelvis_list	pelvis_rotation	pelvis_tx	pelvis_ty	pelvis_tz	hip_flexion_r	hip_adduction_r	hip_rotation_r	knee_angle_r	knee_angle_r_beta	ankle_angle_r	subtalar_angle_r	mtp_angle_r	hip_flexion_l	hip_adduction_l	hip_rotation_l	knee_angle_l	knee_angle_l_beta	ankle_angle_l	subtalar_angle_l	mtp_angle_l	L5_S1_Flex_Ext	L5_S1_Lat_Bending	L5_S1_axial_rotation	L4_L5_Flex_Ext	L4_L5_Lat_Bending	L4_L5_axial_rotation	L3_L4_Flex_Ext	L3_L4_Lat_Bending	L3_L4_axial_rotation	L2_L3_Flex_Ext	L2_L3_Lat_Bending	L2_L3_axial_rotation	L1_L2_Flex_Ext	L1_L2_Lat_Bending	L1_L2_axial_rotation	L1_T12_Flex_Ext	L1_T12_Lat_Bending	L1_T12_axial_rotation	Abs_r3	Abs_r2	Abs_r1	Abs_t1	Abs_t2	neck_flexion	neck_bending	neck_rotation	arm_flex_r	arm_add_r	arm_rot_r	elbow_flex_r	pro_sup_r	wrist_flex_r	wrist_dev_r	arm_flex_l	arm_add_l	arm_rot_l	elbow_flex_l	pro_sup_l	wrist_flex_l	wrist_dev_l
1.250000	0.469060	0.356562	84.666075	0.339243	0.857762	0.582570	-1.340093	0.419514	-2.572759	6.779833	0.118330	37.170816	9.086307	0.000000	-1.358131	-3.275247	0.377331	6.316825	0.110249	38.763284	5.818689	0.000000	0.181821	0.411511	-0.353591	0.337659	0.547310	-0.375690	0.298713	1.000549	-0.375690	0.207803	1.000549	-0.309392	0.168839	0.839154	-0.287292	0.103892	0.637431	-0.265193	1.298727	4.655099	-1.966564	0.000000	0.000000	27.912952	-1.359763	10.568358	1.045909	-14.209555	43.286777	53.564466	34.999237	10.360188	10.623448	8.524214	-14.772082	58.821925	53.758604	67.496291	5.658489	-1.903196
1.266667	0.544875	0.342658	84.847337	0.339153	0.857749	0.582230	-1.438666	0.528896	-2.291379	6.634932	0.115801	36.953192	8.447128	0.000000	-1.471770	-3.354209	0.878374	6.071157	0.105962	38.554929	5.371797	0.000000	0.190370	0.411475	-0.351819	0.353535	0.547262	-0.373808	0.312758	1.000461	-0.373808	0.217573	1.000461	-0.307842	0.176777	0.839080	-0.285853	0.108777	0.637375	-0.263864	1.359791	4.654691	-1.956713	0.000000	0.000000	27.923867	-1.351387	10.110504	0.923168	-14.240071	43.002577	53.709240	34.650153	10.373634	10.743927	8.630219	-14.692733	59.038754	53.809616	67.724849	5.358358	-1.826663
1.283333	0.608719	0.323499	85.068140	0.339056	0.857757	0.581841	-1.574300	0.648720	-1.673491	6.392785	0.111575	36.633672	7.363758	0.000000	-1.584292	-3.420789	1.557735	5.794125	0.101127	38.307797	4.786209	0.000000	0.200999	0.408976	-0.360533	0.373275	0.543938	-0.383066	0.330221	0.994384	-0.383066	0.229721	0.994384	-0.315466	0.186647	0.833984	-0.292933	0.114851	0.633504	-0.270399	1.435713	4.626417	-2.005174	0.000000	0.000000	27.939051	-1.308170	9.660576	0.777849	-14.252854	42.643507	53.892849	34.284271	10.339454	10.854107	8.700069	-14.628587	59.191671	53.892685	68.000502	5.033013	-1.761266
1.300000	0.648009	0.317002	85.285845	0.339018	0.857798	0.581437	-1.756347	0.765279	-0.624410	6.058421	0.105739	36.212578	5.776862	0.000000	-1.729372	-3.450570	2.569320	5.460049	0.095296	37.982786	3.818837	0.000000	0.210703	0.401980	-0.372394	0.391296	0.534633	-0.395669	0.346164	0.977374	-0.395669	0.240812	0.977374	-0.325845	0.195659	0.819718	-0.302570	0.120396	0.622667	-0.279296	1.505030	4.547279	-2.071145	0.000000	0.000000	27.955847	-1.207555	9.252744	0.619980	-14.234975	42.231403	54.096503	33.967553	10.268556	10.891010	8.746231	-14.601816	59.302964	54.032274	68.045640	4.664898	-1.592632
1.316667	0.690319	0.299784	85.433874	0.339043	0.857851	0.581123	-1.895371	0.883028	0.379345	5.756765	0.100475	35.848598	4.368490	0.000000	-1.857874	-3.483349	3.482058	5.136859	0.089655	37.690832	2.926692	0.000000	0.221186	0.396361	-0.378166	0.410764	0.527160	-0.401801	0.363386	0.963711	-0.401801	0.252793	0.963711	-0.330895	0.205393	0.808259	-0.307260	0.126386	0.613963	-0.283624	1.579908	4.483711	-2.103245	0.000000	0.000000	27.969940	-1.098309	8.941259	0.481265	-14.225284	41.816221	54.310459	33.636788	10.212495	10.955171	8.785640	-14.567316	59.394903	54.127200	67.927337	4.325711	-1.615000
1.333333	0.704084	0.289229	85.507424	0.339167	0.857919	0.580932	-2.004063	0.969043	1.377842	5.491904	0.095852	35.539433	3.087646	0.000000	-1.980596	-3.482375	4.322886	4.835756	0.084400	37.414616	2.039641	0.000000	0.229232	0.387108	-0.378991	0.425707	0.514853	-0.402678	0.376605	0.941213	-0.402678	0.261989	0.941213	-0.331617	0.212865	0.789390	-0.307930	0.130983	0.599630	-0.284243	1.637381	4.379039	-2.107834	0.000000	0.000000	27.981644	-0.942997	8.720780	0.392723	-14.195143	41.488422	54.482145	33.294374	10.188576	10.920967	8.803428	-14.563081	59.374453	54.230442	67.890676	4.022688	-1.680698
